<svg width="407.8400146484375px" height="122.40001220703125px" xmlns="http://www.w3.org/2000/svg" viewBox="46.079992675781256 13.799993896484374 407.8400146484375 122.40001220703125" style="background: rgba(0, 0, 0, 0) none repeat scroll 0% 0%;" preserveAspectRatio="xMidYMid"><defs><filter id="editing-vr"><feFlood flood-color="#f00" flood-opacity="0.7" result="c1"></feFlood><feFlood flood-color="#00f" flood-opacity="0.7" result="c3"></feFlood><feComposite operator="in" in="c1" in2="SourceAlpha" result="text-c1"></feComposite><feComposite operator="in" in="c3" in2="SourceAlpha" result="text-c3"></feComposite><feOffset in="text-c1" dx="5" dy="-1" result="text1"></feOffset><feOffset in="text-c3" dx="-5" dy="1" result="text3"></feOffset><feBlend in="SourceGraphic" in2="text1" mode="multiply" result="text4"></feBlend><feBlend in="text4" in2="text3" mode="multiply"></feBlend></filter></defs><g filter="url(#editing-vr)"><g transform="translate(107.18359375, 98.6796875)"><path d="M2.69-39.68L2.69-39.68L2.69-39.68Q4.54-43.52 9.70-43.52L9.70-43.52L9.70-43.52Q14.85-43.52 17.25-40.54L17.25-40.54L17.25-40.54Q19.65-37.57 19.65-30.72L19.65-30.72L19.65-7.87L35.20-42.18L42.82-42.18L22.91 0L7.94 0L6.02-30.72L6.02-30.72Q5.82-34.11 4.90-36.42L4.90-36.42L4.90-36.42Q3.97-38.72 2.69-39.68ZM65.15-10.82L65.15-10.82L65.15-10.82Q66.75-9.73 66.75-7.33L66.75-7.33L66.75-7.33Q66.75-4.93 65.54-3.39L65.54-3.39L65.54-3.39Q64.32-1.86 62.34-0.83L62.34-0.83L62.34-0.83Q58.24 1.28 53.82 1.28L53.82 1.28L53.82 1.28Q49.41 1.28 46.82 0.32L46.82 0.32L46.82 0.32Q44.22-0.64 42.50-2.43L42.50-2.43L42.50-2.43Q39.10-5.82 39.10-12.03L39.10-12.03L39.10-12.03Q39.10-21.70 44.35-27.58L44.35-27.58L44.35-27.58Q49.98-33.92 59.78-33.92L59.78-33.92L59.78-33.92Q65.86-33.92 68.86-31.36L68.86-31.36L68.86-31.36Q71.10-29.44 71.10-26.30L71.10-26.30L71.10-26.30Q71.10-15.04 51.65-15.04L51.65-15.04L51.65-15.04Q51.39-13.38 51.39-11.97L51.39-11.97L51.39-11.97Q51.39-9.02 52.70-7.90L52.70-7.90L52.70-7.90Q54.02-6.78 56.45-6.78L56.45-6.78L56.45-6.78Q58.88-6.78 61.47-7.90L61.47-7.90L61.47-7.90Q64.06-9.02 65.15-10.82ZM52.10-17.79L52.10-17.79L52.10-17.79Q56.64-17.79 59.26-20.61L59.26-20.61L59.26-20.61Q61.89-23.30 61.89-27.58L61.89-27.58L61.89-27.58Q61.89-29.06 61.34-29.86L61.34-29.86L61.34-29.86Q60.80-30.66 59.71-30.66L59.71-30.66L59.71-30.66Q58.62-30.66 57.70-30.24L57.70-30.24L57.70-30.24Q56.77-29.82 55.81-28.42L55.81-28.42L55.81-28.42Q53.44-25.22 52.10-17.79ZM93.31-17.98L93.31-17.98L93.31-17.98Q95.62-22.08 95.62-26.24L95.62-26.24L95.62-26.24Q95.62-28.99 93.63-28.99L93.63-28.99L93.63-28.99Q92.10-28.99 90.50-26.37L90.50-26.37L90.50-26.37Q88.83-23.74 88.32-20.35L88.32-20.35L84.99 0L71.74 1.28L78.27-32.64L88.83-33.92L87.68-27.46L87.68-27.46Q90.82-33.92 97.86-33.92L97.86-33.92L97.86-33.92Q101.57-33.92 103.58-32L103.58-32L103.58-32Q105.60-30.08 105.60-26.14L105.60-26.14L105.60-26.14Q105.60-22.21 103.01-19.71L103.01-19.71L103.01-19.71Q100.42-17.22 96-17.22L96-17.22L96-17.22Q94.08-17.22 93.31-17.98ZM125.76-22.46L125.76-22.46L125.76-22.46Q126.66-24.83 126.66-26.88L126.66-26.88L126.66-26.88Q126.66-30.66 123.58-30.66L123.58-30.66L123.58-30.66Q121.98-30.66 120.67-29.22L120.67-29.22L120.67-29.22Q119.36-27.78 119.36-25.98L119.36-25.98L119.36-25.98Q119.36-24.70 120.38-23.68L120.38-23.68L120.38-23.68Q121.86-22.27 125.63-19.97L125.63-19.97L125.63-19.97Q129.41-17.66 130.85-15.78L130.85-15.78L130.85-15.78Q132.29-13.89 132.29-11.30L132.29-11.30L132.29-11.30Q132.29-8.70 131.04-6.34L131.04-6.34L131.04-6.34Q129.79-3.97 127.55-2.30L127.55-2.30L127.55-2.30Q122.75 1.28 115.07 1.28L115.07 1.28L115.07 1.28Q110.91 1.28 107.71-0.90L107.71-0.90L107.71-0.90Q104.51-3.01 104.51-5.50L104.51-5.50L104.51-5.50Q104.51-8 106.34-9.47L106.34-9.47L106.34-9.47Q108.16-10.94 110.85-10.94L110.85-10.94L110.85-10.94Q113.54-10.94 115.20-9.92L115.20-9.92L115.20-9.92Q114.37-7.81 114.37-6.40L114.37-6.40L114.37-6.40Q114.37-2.18 117.95-2.18L117.95-2.18L117.95-2.18Q119.49-2.18 120.51-3.14L120.51-3.14L120.51-3.14Q121.54-4.10 121.54-5.76L121.54-5.76L121.54-5.76Q121.54-9.02 116.03-12.48L116.03-12.48L116.03-12.48Q111.55-15.42 110.53-16.58L110.53-16.58L110.53-16.58Q108.80-18.62 108.80-21.18L108.80-21.18L108.80-21.18Q108.80-23.74 110.02-26.18L110.02-26.18L110.02-26.18Q111.23-28.61 113.47-30.34L113.47-30.34L113.47-30.34Q118.14-33.92 126.27-33.92L126.27-33.92L126.27-33.92Q130.43-33.92 132.90-32.26L132.90-32.26L132.90-32.26Q135.36-30.59 135.36-27.78L135.36-27.78L135.36-27.78Q135.36-24.96 133.66-23.36L133.66-23.36L133.66-23.36Q131.97-21.76 128.90-21.76L128.90-21.76L128.90-21.76Q126.78-21.76 125.76-22.46ZM140.51-1.92L140.51-1.92L140.51-1.92Q139.01-3.58 138.34-6.21L138.34-6.21L138.34-6.21Q137.66-8.83 137.66-13.12L137.66-13.12L137.66-13.12Q137.66-17.41 139.14-21.31L139.14-21.31L139.14-21.31Q140.61-25.22 143.30-28.03L143.30-28.03L143.30-28.03Q148.80-33.92 157.89-33.92L157.89-33.92L157.89-33.92Q161.15-33.92 163.52-32.83L163.52-32.83L174.46-33.92L169.73-8.96L169.73-8.96Q169.54-8.19 169.54-6.78L169.54-6.78L169.54-6.78Q169.54-5.38 170.40-4.48L170.40-4.48L170.40-4.48Q171.26-3.58 172.54-3.46L172.54-3.46L172.54-3.46Q171.90-1.28 169.57 0L169.57 0L169.57 0Q167.23 1.28 164.61 1.28L164.61 1.28L164.61 1.28Q161.98 1.28 160.22 0.29L160.22 0.29L160.22 0.29Q158.46-0.70 157.95-2.37L157.95-2.37L157.95-2.37Q156.93-0.77 154.75 0.26L154.75 0.26L154.75 0.26Q152.58 1.28 149.66 1.28L149.66 1.28L149.66 1.28Q146.75 1.28 144.38 0.51L144.38 0.51L144.38 0.51Q142.02-0.26 140.51-1.92ZM154.02-27.90L154.02-27.90L154.02-27.90Q153.28-26.75 152.64-24.80L152.64-24.80L152.64-24.80Q152-22.85 150.94-17.63L150.94-17.63L150.94-17.63Q149.89-12.42 149.89-8.70L149.89-8.70L149.89-8.70Q149.89-4.99 150.46-3.90L150.46-3.90L150.46-3.90Q151.04-2.82 152.06-2.82L152.06-2.82L152.06-2.82Q154.11-2.82 155.62-4.77L155.62-4.77L155.62-4.77Q157.12-6.72 157.70-10.18L157.70-10.18L161.09-28.93L161.09-28.93Q159.74-30.08 158.18-30.08L158.18-30.08L158.18-30.08Q156.61-30.08 155.68-29.57L155.68-29.57L155.68-29.57Q154.75-29.06 154.02-27.90ZM209.09-26.62L209.09-26.62L209.09-26.62Q209.09-23.94 206.85-22.27L206.85-22.27L206.85-22.27Q204.61-20.61 200.96-20.61L200.96-20.61L200.96-20.61Q199.42-20.61 198.53-21.06L198.53-21.06L198.53-21.06Q199.23-22.72 199.46-24.80L199.46-24.80L199.46-24.80Q199.68-26.88 199.68-27.46L199.68-27.46L199.68-27.46Q199.68-30.14 197.82-30.14L197.82-30.14L197.82-30.14Q196.54-30.14 195.10-28.54L195.10-28.54L195.10-28.54Q193.66-26.94 192.45-24.45L192.45-24.45L192.45-24.45Q189.76-18.69 189.76-12.86L189.76-12.86L189.76-12.86Q189.76-9.66 190.98-8.22L190.98-8.22L190.98-8.22Q192.19-6.78 194.88-6.78L194.88-6.78L194.88-6.78Q198.59-6.78 201.54-9.86L201.54-9.86L201.54-9.86Q202.37-10.82 202.82-11.90L202.82-11.90L202.82-11.90Q205.25-10.62 205.25-7.10L205.25-7.10L205.25-7.10Q205.25-3.52 201.28-1.15L201.28-1.15L201.28-1.15Q197.18 1.28 190.66 1.28L190.66 1.28L190.66 1.28Q177.66 1.28 177.66-12.48L177.66-12.48L177.66-12.48Q177.66-22.53 183.36-28.29L183.36-28.29L183.36-28.29Q188.86-33.92 198.98-33.92L198.98-33.92L198.98-33.92Q209.09-33.92 209.09-26.62ZM243.01-7.10L243.01-7.10L243.01-7.10Q243.01-4.29 245.89-3.46L245.89-3.46L245.89-3.46Q245.18-1.09 242.43 0.19L242.43 0.19L242.43 0.19Q240.13 1.28 237.60 1.28L237.60 1.28L237.60 1.28Q235.07 1.28 233.76 0.61L233.76 0.61L233.76 0.61Q232.45-0.06 231.74-1.15L231.74-1.15L231.74-1.15Q230.59-2.82 230.59-5.95L230.59-5.95L230.59-5.95Q230.59-7.81 231.62-12.93L231.62-12.93L232.51-17.79L232.51-17.79Q233.60-23.36 233.60-25.41L233.60-25.41L233.60-25.41Q233.60-28.99 231.62-28.99L231.62-28.99L231.62-28.99Q229.12-28.99 227.52-25.34L227.52-25.34L227.52-25.34Q226.88-23.94 226.43-21.82L226.43-21.82L222.08 0L209.22 1.28L218.24-44.80L231.10-46.08L230.59-43.52L230.59-43.52Q228.80-33.66 227.26-30.34L227.26-30.34L227.26-30.34Q230.85-33.92 237.44-33.92L237.44-33.92L237.44-33.92Q244.42-33.92 245.70-29.31L245.70-29.31L245.70-29.31Q246.14-27.84 246.14-26.56L246.14-26.56L246.14-26.56Q246.14-25.28 246.05-24.29L246.05-24.29L246.05-24.29Q245.95-23.30 245.63-21.50L245.63-21.50L244.80-16.90L243.33-9.66L243.33-9.66Q243.01-8.19 243.01-7.10ZM276.99-10.82L276.99-10.82L276.99-10.82Q278.59-9.73 278.59-7.33L278.59-7.33L278.59-7.33Q278.59-4.93 277.38-3.39L277.38-3.39L277.38-3.39Q276.16-1.86 274.18-0.83L274.18-0.83L274.18-0.83Q270.08 1.28 265.66 1.28L265.66 1.28L265.66 1.28Q261.25 1.28 258.66 0.32L258.66 0.32L258.66 0.32Q256.06-0.64 254.34-2.43L254.34-2.43L254.34-2.43Q250.94-5.82 250.94-12.03L250.94-12.03L250.94-12.03Q250.94-21.70 256.19-27.58L256.19-27.58L256.19-27.58Q261.82-33.92 271.62-33.92L271.62-33.92L271.62-33.92Q277.70-33.92 280.70-31.36L280.70-31.36L280.70-31.36Q282.94-29.44 282.94-26.30L282.94-26.30L282.94-26.30Q282.94-15.04 263.49-15.04L263.49-15.04L263.49-15.04Q263.23-13.38 263.23-11.97L263.23-11.97L263.23-11.97Q263.23-9.02 264.54-7.90L264.54-7.90L264.54-7.90Q265.86-6.78 268.29-6.78L268.29-6.78L268.29-6.78Q270.72-6.78 273.31-7.90L273.31-7.90L273.31-7.90Q275.90-9.02 276.99-10.82ZM263.94-17.79L263.94-17.79L263.94-17.79Q268.48-17.79 271.10-20.61L271.10-20.61L271.10-20.61Q273.73-23.30 273.73-27.58L273.73-27.58L273.73-27.58Q273.73-29.06 273.18-29.86L273.18-29.86L273.18-29.86Q272.64-30.66 271.55-30.66L271.55-30.66L271.55-30.66Q270.46-30.66 269.54-30.24L269.54-30.24L269.54-30.24Q268.61-29.82 267.65-28.42L267.65-28.42L267.65-28.42Q265.28-25.22 263.94-17.79Z" fill="#444"></path></g></g><style>text {
  font-size: 64px;
  font-family: Arial Black;
  dominant-baseline: central;
  text-anchor: middle;
}</style></svg>